<mxfile host="app.diagrams.net" modified="2021-06-10T00:58:38.557Z" agent="5.0 (Macintosh; Intel Mac OS X 10_15_7) AppleWebKit/537.36 (KHTML, like Gecko) Chrome/91.0.4472.77 Safari/537.36" etag="57pf0AX0qbaxKl9M0GdZ" version="14.7.7" type="github">
  <diagram id="nIkWP1dEO8LnHkIpu6Ge" name="Page-1">
    <mxGraphModel dx="774" dy="513" grid="1" gridSize="10" guides="1" tooltips="1" connect="1" arrows="1" fold="1" page="1" pageScale="1" pageWidth="827" pageHeight="1169" math="0" shadow="0">
      <root>
        <mxCell id="0" />
        <mxCell id="1" parent="0" />
      </root>
    </mxGraphModel>
  </diagram>
</mxfile>
